<?xml version="1.0" encoding="utf-8"?>
<!-- Generator: Adobe Illustrator 23.0.1, SVG Export Plug-In . SVG Version: 6.00 Build 0)  -->
<svg version="1.1" id="Capa_1" xmlns="http://www.w3.org/2000/svg" xmlns:xlink="http://www.w3.org/1999/xlink" x="0px" y="0px"
	 viewBox="0 0 283.46 283.46" style="enable-background:new 0 0 283.46 283.46;" xml:space="preserve">
<style type="text/css">
	.st0{fill:#A8CCBA;}
	.st1{fill:none;stroke:#FFFFFF;stroke-width:15.2963;stroke-linecap:round;stroke-linejoin:round;}
</style>
<path class="st0" d="M141.73,283.46L141.73,283.46C63.46,283.46,0,220.01,0,141.73v0C0,63.46,63.46,0,141.73,0h0
	c78.28,0,141.73,63.46,141.73,141.73v0C283.46,220.01,220.01,283.46,141.73,283.46z"/>
<path class="st1" d="M72.9,72.9h15.3l3.06,15.3 M103.49,149.38h76.48l30.59-61.19H91.25 M103.49,149.38L91.25,88.2 M103.49,149.38
	l-17.54,17.54c-4.82,4.82-1.41,13.06,5.41,13.06h88.61 M179.97,179.97c-8.45,0-15.3,6.85-15.3,15.3s6.85,15.3,15.3,15.3
	c8.45,0,15.3-6.85,15.3-15.3S188.42,179.97,179.97,179.97z M118.79,195.27c0,8.45-6.85,15.3-15.3,15.3s-15.3-6.85-15.3-15.3
	s6.85-15.3,15.3-15.3S118.79,186.82,118.79,195.27z"/>
</svg>
